<svg width="835" height="355" viewBox="0 0 835 355" fill="none" xmlns="http://www.w3.org/2000/svg">
<g clip-path="url(#clip0_1_94)">
<path d="M177.5 312.003C251.784 312.003 312.003 251.784 312.003 177.5C312.003 103.216 251.784 42.9969 177.5 42.9969C103.216 42.9969 42.9969 103.216 42.9969 177.5C42.9969 251.784 103.216 312.003 177.5 312.003Z" fill="#0A0A0A"/>
<path fill-rule="evenodd" clip-rule="evenodd" d="M180.366 100.877C178.971 101.06 174.523 101.539 172.208 101.98C169.893 102.421 168.312 102.935 166.475 103.523C164.638 104.112 163.536 104.405 161.183 105.508C158.831 106.61 154.641 108.815 152.363 110.138C150.086 111.461 149.166 112.195 147.512 113.446C145.859 114.696 144.223 115.999 142.441 117.635C140.659 119.271 138.344 121.622 136.818 123.258C135.292 124.894 134.393 126.051 133.29 127.447C132.188 128.843 131.379 129.873 130.203 131.637C129.028 133.401 127.447 135.864 126.234 138.031C125.022 140.199 123.847 142.624 122.927 144.646C122.008 146.668 121.531 147.585 120.722 150.158C119.913 152.732 118.665 157.287 118.076 160.081C117.487 162.874 117.342 164.894 117.194 166.916C117.046 168.938 117.084 170.371 117.194 172.208C117.304 174.045 117.452 175.919 117.856 177.941C118.259 179.963 118.885 182.388 119.62 184.335C120.354 186.282 121.346 188.121 122.266 189.627C123.185 191.133 123.974 192.145 125.132 193.376C126.29 194.606 127.575 195.856 129.211 197.014C130.847 198.172 132.849 199.402 134.944 200.321C137.039 201.241 139.647 202.013 141.78 202.526C143.912 203.04 145.27 203.261 147.733 203.408C150.196 203.556 154.017 203.556 156.553 203.408C159.089 203.261 160.963 202.895 162.947 202.526C164.932 202.158 166.327 201.865 168.46 201.203C170.592 200.542 173.458 199.512 175.736 198.557C178.014 197.603 179.522 196.977 182.13 195.471C184.739 193.965 189.793 190.492 191.391 189.517C192.99 188.543 192.659 186.227 191.722 189.627C190.785 193.027 187.68 203.812 185.769 209.913C183.857 216.014 182.02 221.672 180.256 226.23C178.492 230.788 176.36 234.867 175.185 237.255C174.01 239.643 174.082 239.277 173.2 240.562C172.318 241.848 170.903 243.777 169.893 244.972C168.883 246.167 168.001 246.974 167.137 247.728C166.272 248.482 165.776 248.941 164.711 249.492C163.646 250.044 161.882 250.778 160.742 251.036C159.602 251.294 158.758 251.219 157.876 251.036C156.994 250.853 156.019 250.319 155.45 249.933C154.881 249.547 154.734 249.179 154.458 248.721C154.182 248.262 153.944 248.39 153.797 247.177C153.649 245.964 153.779 242.639 153.576 241.444C153.373 240.249 153.007 240.397 152.584 240.011C152.161 239.625 151.739 239.349 151.04 239.129C150.341 238.908 149.387 238.65 148.394 238.688C147.402 238.725 145.896 239.091 145.087 239.349C144.278 239.607 144.223 239.625 143.543 240.231C142.864 240.838 141.577 242.161 141.008 242.988C140.439 243.814 140.309 244.383 140.126 245.193C139.943 246.002 139.833 246.957 139.905 247.839C139.978 248.721 140.309 249.786 140.567 250.485C140.825 251.183 140.953 251.422 141.449 252.028C141.945 252.634 142.789 253.554 143.543 254.123C144.298 254.692 145.124 255.077 145.969 255.446C146.813 255.814 147.695 256.107 148.615 256.328C149.534 256.548 150.231 256.696 151.481 256.769C152.732 256.841 154.606 256.879 156.112 256.769C157.618 256.658 159.016 256.438 160.522 256.107C162.028 255.776 163.498 255.408 165.152 254.784C166.806 254.16 168.79 253.241 170.444 252.359C172.098 251.477 173.789 250.374 175.075 249.492C176.36 248.61 176.894 248.187 178.162 247.067C179.429 245.947 181.376 244.145 182.682 242.767C183.987 241.389 184.593 240.745 185.989 238.798C187.385 236.851 189.297 234.24 191.061 231.081C192.825 227.921 195.067 223.291 196.573 219.835C198.079 216.38 198.851 214.03 200.101 210.354C201.351 206.678 202.857 201.902 204.07 197.786C205.283 193.669 206.661 188.066 207.377 185.658C208.094 183.251 205.155 183.692 208.37 183.343C211.584 182.995 223.566 183.581 226.671 183.564C229.775 183.546 226.433 184.17 227.002 183.233C227.57 182.296 229.592 178.878 230.089 177.941C230.585 177.004 233.358 177.648 229.978 177.61C226.598 177.573 212.614 179.723 209.803 177.721C206.991 175.718 211.97 169.414 213.11 165.593C214.25 161.772 215.573 157.618 216.638 154.789C217.703 151.96 218.623 150.269 219.505 148.615C220.387 146.961 221.141 145.914 221.93 144.866C222.72 143.819 223.491 143.01 224.245 142.331C224.999 141.652 225.641 141.191 226.45 140.787C227.26 140.384 228.214 140.016 229.096 139.905C229.978 139.795 231.026 139.888 231.742 140.126C232.459 140.364 233.01 140.915 233.396 141.339C233.782 141.762 233.947 141.963 234.057 142.662C234.168 143.36 234.168 144.719 234.057 145.528C233.947 146.337 233.469 146.851 233.396 147.512C233.323 148.174 233.268 148.928 233.616 149.497C233.965 150.066 234.847 150.655 235.491 150.93C236.135 151.206 236.741 151.188 237.475 151.151C238.209 151.113 239.019 151.078 239.901 150.71C240.783 150.341 242.013 149.625 242.767 148.946C243.521 148.267 244.035 147.42 244.421 146.63C244.807 145.841 244.972 145.014 245.082 144.205C245.193 143.396 245.265 142.699 245.082 141.78C244.899 140.86 244.549 139.592 243.98 138.693C243.411 137.793 242.491 136.984 241.665 136.377C240.838 135.771 239.828 135.348 239.019 135.054C238.209 134.761 238.064 134.686 236.814 134.613C235.563 134.541 233.248 134.43 231.522 134.613C229.795 134.796 227.956 135.275 226.45 135.716C224.944 136.157 223.767 136.671 222.481 137.259C221.196 137.848 220.129 138.362 218.733 139.244C217.337 140.126 215.664 141.211 214.103 142.551C212.541 143.892 210.592 145.914 209.362 147.292C208.131 148.67 207.525 149.645 206.716 150.82C205.907 151.995 205.466 152.546 204.511 154.348C203.556 156.149 201.902 159.567 200.983 161.624C200.063 163.681 199.88 164.087 198.998 166.696C198.116 169.304 196.335 175.423 195.691 177.28C195.047 179.136 197.914 177.776 195.14 177.831C192.366 177.886 181.782 177.593 179.043 177.61C176.305 177.628 179.246 177.004 178.713 177.941C178.179 178.878 176.305 182.296 175.846 183.233C175.388 184.17 173.035 183.546 175.957 183.564C178.878 183.581 190.547 183.27 193.376 183.343C196.205 183.416 193.779 183.381 192.935 184.005C192.09 184.629 190.251 185.916 188.304 187.092C186.357 188.267 183.822 189.848 181.248 191.061C178.675 192.273 175.368 193.559 172.87 194.368C170.371 195.177 167.946 195.581 166.255 195.912C164.563 196.242 164.233 196.28 162.727 196.353C161.221 196.425 158.685 196.425 157.214 196.353C155.744 196.28 155.192 196.205 153.907 195.912C152.621 195.618 150.893 195.177 149.497 194.589C148.101 194 146.558 193.045 145.528 192.384C144.498 191.722 144.15 191.446 143.323 190.62C142.496 189.793 141.356 188.543 140.567 187.422C139.777 186.302 139.134 185.107 138.582 183.894C138.031 182.682 137.663 181.8 137.259 180.146C136.856 178.492 136.305 176.728 136.157 173.972C136.009 171.216 135.974 167.137 136.377 163.609C136.781 160.081 137.59 156.332 138.582 152.804C139.575 149.276 141.301 145.014 142.331 142.441C143.36 139.868 143.801 139.171 144.756 137.37C145.711 135.568 146.483 134.025 148.064 131.637C149.645 129.249 152.125 125.591 154.238 123.037C156.35 120.484 158.665 118.169 160.742 116.312C162.819 114.456 164.601 113.188 166.696 111.902C168.79 110.617 171.584 109.329 173.311 108.595C175.037 107.86 175.957 107.75 177.059 107.492C178.162 107.234 178.565 107.124 179.925 107.051C181.286 106.979 183.601 106.868 185.217 107.051C186.834 107.234 188.452 107.713 189.627 108.154C190.803 108.595 191.446 109.018 192.273 109.697C193.1 110.376 193.982 111.186 194.589 112.233C195.195 113.28 195.691 114.806 195.912 115.981C196.132 117.157 196.132 117.966 195.912 119.289C195.691 120.612 195.25 122.449 194.589 123.919C193.927 125.39 192.256 127.209 191.943 128.109C191.629 129.008 192.401 129.046 192.714 129.321C193.027 129.597 193.045 129.69 193.817 129.762C194.589 129.835 196.315 129.91 197.345 129.762C198.374 129.615 199.256 129.211 199.991 128.88C200.725 128.55 201.038 128.384 201.755 127.778C202.471 127.172 203.611 126.107 204.29 125.242C204.97 124.378 205.393 123.699 205.834 122.596C206.275 121.494 206.789 120.133 206.936 118.627C207.084 117.121 207.009 115.027 206.716 113.556C206.423 112.085 205.852 110.928 205.172 109.807C204.493 108.687 203.757 107.805 202.637 106.831C201.517 105.856 200.028 104.774 198.447 103.964C196.866 103.155 195.177 102.494 193.155 101.98C191.133 101.466 188.415 101.06 186.32 100.877C184.225 100.694 181.579 100.877 180.587 100.877C179.595 100.877 181.762 100.694 180.366 100.877Z" fill="white"/>
</g>
<path d="M441.182 160H429.909C429.242 156.758 428.076 153.909 426.409 151.455C424.773 149 422.773 146.939 420.409 145.273C418.076 143.576 415.485 142.303 412.636 141.455C409.788 140.606 406.818 140.182 403.727 140.182C398.091 140.182 392.985 141.606 388.409 144.455C383.864 147.303 380.242 151.5 377.545 157.045C374.879 162.591 373.545 169.394 373.545 177.455C373.545 185.515 374.879 192.318 377.545 197.864C380.242 203.409 383.864 207.606 388.409 210.455C392.985 213.303 398.091 214.727 403.727 214.727C406.818 214.727 409.788 214.303 412.636 213.455C415.485 212.606 418.076 211.348 420.409 209.682C422.773 207.985 424.773 205.909 426.409 203.455C428.076 200.97 429.242 198.121 429.909 194.909H441.182C440.333 199.667 438.788 203.924 436.545 207.682C434.303 211.439 431.515 214.636 428.182 217.273C424.848 219.879 421.106 221.864 416.955 223.227C412.833 224.591 408.424 225.273 403.727 225.273C395.788 225.273 388.727 223.333 382.545 219.455C376.364 215.576 371.5 210.061 367.955 202.909C364.409 195.758 362.636 187.273 362.636 177.455C362.636 167.636 364.409 159.152 367.955 152C371.5 144.848 376.364 139.333 382.545 135.455C388.727 131.576 395.788 129.636 403.727 129.636C408.424 129.636 412.833 130.318 416.955 131.682C421.106 133.045 424.848 135.045 428.182 137.682C431.515 140.288 434.303 143.47 436.545 147.227C438.788 150.955 440.333 155.212 441.182 160ZM486.307 225.455C480.004 225.455 474.473 223.955 469.716 220.955C464.989 217.955 461.292 213.758 458.625 208.364C455.989 202.97 454.67 196.667 454.67 189.455C454.67 182.182 455.989 175.833 458.625 170.409C461.292 164.985 464.989 160.773 469.716 157.773C474.473 154.773 480.004 153.273 486.307 153.273C492.61 153.273 498.125 154.773 502.852 157.773C507.61 160.773 511.307 164.985 513.943 170.409C516.61 175.833 517.943 182.182 517.943 189.455C517.943 196.667 516.61 202.97 513.943 208.364C511.307 213.758 507.61 217.955 502.852 220.955C498.125 223.955 492.61 225.455 486.307 225.455ZM486.307 215.818C491.095 215.818 495.034 214.591 498.125 212.136C501.216 209.682 503.504 206.455 504.989 202.455C506.473 198.455 507.216 194.121 507.216 189.455C507.216 184.788 506.473 180.439 504.989 176.409C503.504 172.379 501.216 169.121 498.125 166.636C495.034 164.152 491.095 162.909 486.307 162.909C481.519 162.909 477.58 164.152 474.489 166.636C471.398 169.121 469.11 172.379 467.625 176.409C466.14 180.439 465.398 184.788 465.398 189.455C465.398 194.121 466.14 198.455 467.625 202.455C469.11 206.455 471.398 209.682 474.489 212.136C477.58 214.591 481.519 215.818 486.307 215.818ZM534.318 224V154.182H544.682V164.727H545.409C546.682 161.273 548.985 158.47 552.318 156.318C555.652 154.167 559.409 153.091 563.591 153.091C564.379 153.091 565.364 153.106 566.545 153.136C567.727 153.167 568.621 153.212 569.227 153.273V164.182C568.864 164.091 568.03 163.955 566.727 163.773C565.455 163.561 564.106 163.455 562.682 163.455C559.288 163.455 556.258 164.167 553.591 165.591C550.955 166.985 548.864 168.924 547.318 171.409C545.803 173.864 545.045 176.667 545.045 179.818V224H534.318ZM609.091 225.455C602.364 225.455 596.561 223.97 591.682 221C586.833 218 583.091 213.818 580.455 208.455C577.848 203.061 576.545 196.788 576.545 189.636C576.545 182.485 577.848 176.182 580.455 170.727C583.091 165.242 586.758 160.97 591.455 157.909C596.182 154.818 601.697 153.273 608 153.273C611.636 153.273 615.227 153.879 618.773 155.091C622.318 156.303 625.545 158.273 628.455 161C631.364 163.697 633.682 167.273 635.409 171.727C637.136 176.182 638 181.667 638 188.182V192.727H584.182V183.455H627.091C627.091 179.515 626.303 176 624.727 172.909C623.182 169.818 620.97 167.379 618.091 165.591C615.242 163.803 611.879 162.909 608 162.909C603.727 162.909 600.03 163.97 596.909 166.091C593.818 168.182 591.439 170.909 589.773 174.273C588.106 177.636 587.273 181.242 587.273 185.091V191.273C587.273 196.545 588.182 201.015 590 204.682C591.848 208.318 594.409 211.091 597.682 213C600.955 214.879 604.758 215.818 609.091 215.818C611.909 215.818 614.455 215.424 616.727 214.636C619.03 213.818 621.015 212.606 622.682 211C624.348 209.364 625.636 207.333 626.545 204.909L636.909 207.818C635.818 211.333 633.985 214.424 631.409 217.091C628.833 219.727 625.652 221.788 621.864 223.273C618.076 224.727 613.818 225.455 609.091 225.455ZM689.773 154.182V168.727H646.682V154.182H689.773ZM656.545 224V149.136C656.545 144.076 657.53 139.879 659.5 136.545C661.5 133.212 664.227 130.712 667.682 129.045C671.136 127.379 675.061 126.545 679.455 126.545C682.424 126.545 685.136 126.773 687.591 127.227C690.076 127.682 691.924 128.091 693.136 128.455L689.682 143C688.924 142.758 687.985 142.53 686.864 142.318C685.773 142.106 684.652 142 683.5 142C680.652 142 678.667 142.667 677.545 144C676.424 145.303 675.864 147.136 675.864 149.5V224H656.545ZM701.602 224V154.182H720.966V224H701.602ZM711.33 145.182C708.451 145.182 705.981 144.227 703.92 142.318C701.89 140.379 700.875 138.061 700.875 135.364C700.875 132.697 701.89 130.409 703.92 128.5C705.981 126.561 708.451 125.591 711.33 125.591C714.208 125.591 716.663 126.561 718.693 128.5C720.754 130.409 721.784 132.697 721.784 135.364C721.784 138.061 720.754 140.379 718.693 142.318C716.663 144.227 714.208 145.182 711.33 145.182ZM752.659 154.182L765.477 178.591L778.614 154.182H798.477L778.25 189.091L799.023 224H779.25L765.477 199.864L751.932 224H731.932L752.659 189.091L732.659 154.182H752.659Z" fill="black"/>
<path d="M441.182 160H429.909C429.242 156.758 428.076 153.909 426.409 151.455C424.773 149 422.773 146.939 420.409 145.273C418.076 143.576 415.485 142.303 412.636 141.455C409.788 140.606 406.818 140.182 403.727 140.182C398.091 140.182 392.985 141.606 388.409 144.455C383.864 147.303 380.242 151.5 377.545 157.045C374.879 162.591 373.545 169.394 373.545 177.455C373.545 185.515 374.879 192.318 377.545 197.864C380.242 203.409 383.864 207.606 388.409 210.455C392.985 213.303 398.091 214.727 403.727 214.727C406.818 214.727 409.788 214.303 412.636 213.455C415.485 212.606 418.076 211.348 420.409 209.682C422.773 207.985 424.773 205.909 426.409 203.455C428.076 200.97 429.242 198.121 429.909 194.909H441.182C440.333 199.667 438.788 203.924 436.545 207.682C434.303 211.439 431.515 214.636 428.182 217.273C424.848 219.879 421.106 221.864 416.955 223.227C412.833 224.591 408.424 225.273 403.727 225.273C395.788 225.273 388.727 223.333 382.545 219.455C376.364 215.576 371.5 210.061 367.955 202.909C364.409 195.758 362.636 187.273 362.636 177.455C362.636 167.636 364.409 159.152 367.955 152C371.5 144.848 376.364 139.333 382.545 135.455C388.727 131.576 395.788 129.636 403.727 129.636C408.424 129.636 412.833 130.318 416.955 131.682C421.106 133.045 424.848 135.045 428.182 137.682C431.515 140.288 434.303 143.47 436.545 147.227C438.788 150.955 440.333 155.212 441.182 160ZM486.307 225.455C480.004 225.455 474.473 223.955 469.716 220.955C464.989 217.955 461.292 213.758 458.625 208.364C455.989 202.97 454.67 196.667 454.67 189.455C454.67 182.182 455.989 175.833 458.625 170.409C461.292 164.985 464.989 160.773 469.716 157.773C474.473 154.773 480.004 153.273 486.307 153.273C492.61 153.273 498.125 154.773 502.852 157.773C507.61 160.773 511.307 164.985 513.943 170.409C516.61 175.833 517.943 182.182 517.943 189.455C517.943 196.667 516.61 202.97 513.943 208.364C511.307 213.758 507.61 217.955 502.852 220.955C498.125 223.955 492.61 225.455 486.307 225.455ZM486.307 215.818C491.095 215.818 495.034 214.591 498.125 212.136C501.216 209.682 503.504 206.455 504.989 202.455C506.473 198.455 507.216 194.121 507.216 189.455C507.216 184.788 506.473 180.439 504.989 176.409C503.504 172.379 501.216 169.121 498.125 166.636C495.034 164.152 491.095 162.909 486.307 162.909C481.519 162.909 477.58 164.152 474.489 166.636C471.398 169.121 469.11 172.379 467.625 176.409C466.14 180.439 465.398 184.788 465.398 189.455C465.398 194.121 466.14 198.455 467.625 202.455C469.11 206.455 471.398 209.682 474.489 212.136C477.58 214.591 481.519 215.818 486.307 215.818ZM534.318 224V154.182H544.682V164.727H545.409C546.682 161.273 548.985 158.47 552.318 156.318C555.652 154.167 559.409 153.091 563.591 153.091C564.379 153.091 565.364 153.106 566.545 153.136C567.727 153.167 568.621 153.212 569.227 153.273V164.182C568.864 164.091 568.03 163.955 566.727 163.773C565.455 163.561 564.106 163.455 562.682 163.455C559.288 163.455 556.258 164.167 553.591 165.591C550.955 166.985 548.864 168.924 547.318 171.409C545.803 173.864 545.045 176.667 545.045 179.818V224H534.318ZM609.091 225.455C602.364 225.455 596.561 223.97 591.682 221C586.833 218 583.091 213.818 580.455 208.455C577.848 203.061 576.545 196.788 576.545 189.636C576.545 182.485 577.848 176.182 580.455 170.727C583.091 165.242 586.758 160.97 591.455 157.909C596.182 154.818 601.697 153.273 608 153.273C611.636 153.273 615.227 153.879 618.773 155.091C622.318 156.303 625.545 158.273 628.455 161C631.364 163.697 633.682 167.273 635.409 171.727C637.136 176.182 638 181.667 638 188.182V192.727H584.182V183.455H627.091C627.091 179.515 626.303 176 624.727 172.909C623.182 169.818 620.97 167.379 618.091 165.591C615.242 163.803 611.879 162.909 608 162.909C603.727 162.909 600.03 163.97 596.909 166.091C593.818 168.182 591.439 170.909 589.773 174.273C588.106 177.636 587.273 181.242 587.273 185.091V191.273C587.273 196.545 588.182 201.015 590 204.682C591.848 208.318 594.409 211.091 597.682 213C600.955 214.879 604.758 215.818 609.091 215.818C611.909 215.818 614.455 215.424 616.727 214.636C619.03 213.818 621.015 212.606 622.682 211C624.348 209.364 625.636 207.333 626.545 204.909L636.909 207.818C635.818 211.333 633.985 214.424 631.409 217.091C628.833 219.727 625.652 221.788 621.864 223.273C618.076 224.727 613.818 225.455 609.091 225.455ZM689.773 154.182V168.727H646.682V154.182H689.773ZM656.545 224V149.136C656.545 144.076 657.53 139.879 659.5 136.545C661.5 133.212 664.227 130.712 667.682 129.045C671.136 127.379 675.061 126.545 679.455 126.545C682.424 126.545 685.136 126.773 687.591 127.227C690.076 127.682 691.924 128.091 693.136 128.455L689.682 143C688.924 142.758 687.985 142.53 686.864 142.318C685.773 142.106 684.652 142 683.5 142C680.652 142 678.667 142.667 677.545 144C676.424 145.303 675.864 147.136 675.864 149.5V224H656.545ZM701.602 224V154.182H720.966V224H701.602ZM711.33 145.182C708.451 145.182 705.981 144.227 703.92 142.318C701.89 140.379 700.875 138.061 700.875 135.364C700.875 132.697 701.89 130.409 703.92 128.5C705.981 126.561 708.451 125.591 711.33 125.591C714.208 125.591 716.663 126.561 718.693 128.5C720.754 130.409 721.784 132.697 721.784 135.364C721.784 138.061 720.754 140.379 718.693 142.318C716.663 144.227 714.208 145.182 711.33 145.182ZM752.659 154.182L765.477 178.591L778.614 154.182H798.477L778.25 189.091L799.023 224H779.25L765.477 199.864L751.932 224H731.932L752.659 189.091L732.659 154.182H752.659Z" fill="black" fill-opacity="0.2"/>
<defs>
<clipPath id="clip0_1_94">
<rect width="355" height="355" fill="white"/>
</clipPath>
</defs>
</svg>
