<svg xmlns="http://www.w3.org/2000/svg" viewBox="0 0 1610 1610" width="1610" height="1610" role="img" aria-label="Cf monogram">
  <circle cx="805" cy="805" r="610" fill="#ffffff"></circle>
  <path transform="translate(195,195)" fill="#0a0a0a" fill-rule="evenodd" d="M623.00,262.50C616.67,263.33 596.50,265.50 586.00,267.50C575.50,269.50 568.33,271.83 560.00,274.50C551.67,277.17 546.67,278.50 536.00,283.50C525.33,288.50 506.33,298.50 496.00,304.50C485.67,310.50 481.50,313.83 474.00,319.50C466.50,325.17 459.08,331.08 451.00,338.50C442.92,345.92 432.42,356.58 425.50,364.00C418.58,371.42 414.50,376.67 409.50,383.00C404.50,389.33 400.83,394.00 395.50,402.00C390.17,410.00 383.00,421.17 377.50,431.00C372.00,440.83 366.67,451.83 362.50,461.00C358.33,470.17 356.17,474.33 352.50,486.00C348.83,497.67 343.17,518.33 340.50,531.00C337.83,543.67 337.17,552.83 336.50,562.00C335.83,571.17 336.00,577.67 336.50,586.00C337.00,594.33 337.67,602.83 339.50,612.00C341.33,621.17 344.17,632.17 347.50,641.00C350.83,649.83 355.33,658.17 359.50,665.00C363.67,671.83 367.25,676.42 372.50,682.00C377.75,687.58 383.58,693.25 391.00,698.50C398.42,703.75 407.50,709.33 417.00,713.50C426.50,717.67 438.33,721.17 448.00,723.50C457.67,725.83 463.83,726.83 475.00,727.50C486.17,728.17 503.50,728.17 515.00,727.50C526.50,726.83 535.00,725.17 544.00,723.50C553.00,721.83 559.33,720.50 569.00,717.50C578.67,714.50 591.67,709.83 602.00,705.50C612.33,701.17 619.17,698.33 631.00,691.50C642.83,684.67 665.75,668.92 673.00,664.50C680.25,660.08 678.75,649.58 674.50,665.00C670.25,680.42 656.17,729.33 647.50,757.00C638.83,784.67 630.50,810.33 622.50,831.00C614.50,851.67 604.83,870.17 599.50,881.00C594.17,891.83 594.50,890.17 590.50,896.00C586.50,901.83 580.08,910.58 575.50,916.00C570.92,921.42 566.92,925.08 563.00,928.50C559.08,931.92 556.83,934.00 552.00,936.50C547.17,939.00 539.17,942.33 534.00,943.50C528.83,944.67 525.00,944.33 521.00,943.50C517.00,942.67 512.58,940.25 510.00,938.50C507.42,936.75 506.75,935.08 505.50,933.00C504.25,930.92 503.17,931.50 502.50,926.00C501.83,920.50 502.42,905.42 501.50,900.00C500.58,894.58 498.92,895.25 497.00,893.50C495.08,891.75 493.17,890.50 490.00,889.50C486.83,888.50 482.50,887.33 478.00,887.50C473.50,887.67 466.67,889.33 463.00,890.50C459.33,891.67 459.08,891.75 456.00,894.50C452.92,897.25 447.08,903.25 444.50,907.00C441.92,910.75 441.33,913.33 440.50,917.00C439.67,920.67 439.17,925.00 439.50,929.00C439.83,933.00 441.33,937.83 442.50,941.00C443.67,944.17 444.25,945.25 446.50,948.00C448.75,950.75 452.58,954.92 456.00,957.50C459.42,960.08 463.17,961.83 467.00,963.50C470.83,965.17 474.83,966.50 479.00,967.50C483.17,968.50 486.33,969.17 492.00,969.50C497.67,969.83 506.17,970.00 513.00,969.50C519.83,969.00 526.17,968.00 533.00,966.50C539.83,965.00 546.50,963.33 554.00,960.50C561.50,957.67 570.50,953.50 578.00,949.50C585.50,945.50 593.17,940.50 599.00,936.50C604.83,932.50 607.25,930.58 613.00,925.50C618.75,920.42 627.58,912.25 633.50,906.00C639.42,899.75 642.17,896.83 648.50,888.00C654.83,879.17 663.50,867.33 671.50,853.00C679.50,838.67 689.67,817.67 696.50,802.00C703.33,786.33 706.83,775.67 712.50,759.00C718.17,742.33 725.00,720.67 730.50,702.00C736.00,683.33 742.25,657.92 745.50,647.00C748.75,636.08 735.42,638.08 750.00,636.50C764.58,634.92 818.92,637.58 833.00,637.50C847.08,637.42 831.92,640.25 834.50,636.00C837.08,631.75 846.25,616.25 848.50,612.00C850.75,607.75 863.33,610.67 848.00,610.50C832.67,610.33 769.25,620.08 756.50,611.00C743.75,601.92 766.33,573.33 771.50,556.00C776.67,538.67 782.67,519.83 787.50,507.00C792.33,494.17 796.50,486.50 800.50,479.00C804.50,471.50 807.92,466.75 811.50,462.00C815.08,457.25 818.58,453.58 822.00,450.50C825.42,447.42 828.33,445.33 832.00,443.50C835.67,441.67 840.00,440.00 844.00,439.50C848.00,439.00 852.75,439.42 856.00,440.50C859.25,441.58 861.75,444.08 863.50,446.00C865.25,447.92 866.00,448.83 866.50,452.00C867.00,455.17 867.00,461.33 866.50,465.00C866.00,468.67 863.83,471.00 863.50,474.00C863.17,477.00 862.92,480.42 864.50,483.00C866.08,485.58 870.08,488.25 873.00,489.50C875.92,490.75 878.67,490.67 882.00,490.50C885.33,490.33 889.00,490.17 893.00,488.50C897.00,486.83 902.58,483.58 906.00,480.50C909.42,477.42 911.75,473.58 913.50,470.00C915.25,466.42 916.00,462.67 916.50,459.00C917.00,455.33 917.33,452.17 916.50,448.00C915.67,443.83 914.08,438.08 911.50,434.00C908.92,429.92 904.75,426.25 901.00,423.50C897.25,420.75 892.67,418.83 889.00,417.50C885.33,416.17 884.67,415.83 879.00,415.50C873.33,415.17 862.83,414.67 855.00,415.50C847.17,416.33 838.83,418.50 832.00,420.50C825.17,422.50 819.83,424.83 814.00,427.50C808.17,430.17 803.33,432.50 797.00,436.50C790.67,440.50 783.08,445.42 776.00,451.50C768.92,457.58 760.08,466.75 754.50,473.00C748.92,479.25 746.17,483.67 742.50,489.00C738.83,494.33 736.83,496.83 732.50,505.00C728.17,513.17 720.67,528.67 716.50,538.00C712.33,547.33 711.50,549.17 707.50,561.00C703.50,572.83 695.42,600.58 692.50,609.00C689.58,617.42 702.58,611.25 690.00,611.50C677.42,611.75 629.42,610.42 617.00,610.50C604.58,610.58 617.92,607.75 615.50,612.00C613.08,616.25 604.58,631.75 602.50,636.00C600.42,640.25 589.75,637.42 603.00,637.50C616.25,637.58 669.17,636.17 682.00,636.50C694.83,636.83 683.83,636.67 680.00,639.50C676.17,642.33 667.83,648.17 659.00,653.50C650.17,658.83 638.67,666.00 627.00,671.50C615.33,677.00 600.33,682.83 589.00,686.50C577.67,690.17 566.67,692.00 559.00,693.50C551.33,695.00 549.83,695.17 543.00,695.50C536.17,695.83 524.67,695.83 518.00,695.50C511.33,695.17 508.83,694.83 503.00,693.50C497.17,692.17 489.33,690.17 483.00,687.50C476.67,684.83 469.67,680.50 465.00,677.50C460.33,674.50 458.75,673.25 455.00,669.50C451.25,665.75 446.08,660.08 442.50,655.00C438.92,649.92 436.00,644.50 433.50,639.00C431.00,633.50 429.33,629.50 427.50,622.00C425.67,614.50 423.17,606.50 422.50,594.00C421.83,581.50 421.67,563.00 423.50,547.00C425.33,531.00 429.00,514.00 433.50,498.00C438.00,482.00 445.83,462.67 450.50,451.00C455.17,439.33 457.17,436.17 461.50,428.00C465.83,419.83 469.33,412.83 476.50,402.00C483.67,391.17 494.92,374.58 504.50,363.00C514.08,351.42 524.58,340.92 534.00,332.50C543.42,324.08 551.50,318.33 561.00,312.50C570.50,306.67 583.17,300.83 591.00,297.50C598.83,294.17 603.00,293.67 608.00,292.50C613.00,291.33 614.83,290.83 621.00,290.50C627.17,290.17 637.67,289.67 645.00,290.50C652.33,291.33 659.67,293.50 665.00,295.50C670.33,297.50 673.25,299.42 677.00,302.50C680.75,305.58 684.75,309.25 687.50,314.00C690.25,318.75 692.50,325.67 693.50,331.00C694.50,336.33 694.50,340.00 693.50,346.00C692.50,352.00 690.50,360.33 687.50,367.00C684.50,373.67 676.92,381.92 675.50,386.00C674.08,390.08 677.58,390.25 679.00,391.50C680.42,392.75 680.50,393.17 684.00,393.50C687.50,393.83 695.33,394.17 700.00,393.50C704.67,392.83 708.67,391.00 712.00,389.50C715.33,388.00 716.75,387.25 720.00,384.50C723.25,381.75 728.42,376.92 731.50,373.00C734.58,369.08 736.50,366.00 738.50,361.00C740.50,356.00 742.83,349.83 743.50,343.00C744.17,336.17 743.83,326.67 742.50,320.00C741.17,313.33 738.58,308.08 735.50,303.00C732.42,297.92 729.08,293.92 724.00,289.50C718.92,285.08 712.17,280.17 705.00,276.50C697.83,272.83 690.17,269.83 681.00,267.50C671.83,265.17 659.50,263.33 650.00,262.50C640.50,261.67 628.50,262.50 624.00,262.50C619.50,262.50 629.33,261.67 623.00,262.50Z"></path>
</svg>