<svg width="835" height="355" viewBox="0 0 835 355" fill="none" xmlns="http://www.w3.org/2000/svg">
<path d="M177.5 312.003C251.784 312.003 312.003 251.784 312.003 177.5C312.003 103.216 251.784 42.9969 177.5 42.9969C103.216 42.9969 42.9969 103.216 42.9969 177.5C42.9969 251.784 103.216 312.003 177.5 312.003Z" fill="white"/>
<path fill-rule="evenodd" clip-rule="evenodd" d="M180.366 100.877C178.971 101.06 174.523 101.539 172.208 101.98C169.893 102.421 168.312 102.935 166.475 103.523C164.638 104.112 163.536 104.405 161.183 105.508C158.831 106.61 154.641 108.815 152.363 110.138C150.086 111.461 149.166 112.195 147.512 113.446C145.859 114.696 144.223 115.999 142.441 117.635C140.659 119.271 138.344 121.622 136.818 123.258C135.292 124.894 134.393 126.051 133.29 127.447C132.188 128.843 131.379 129.873 130.203 131.637C129.028 133.401 127.447 135.864 126.234 138.031C125.022 140.199 123.847 142.624 122.927 144.646C122.008 146.668 121.531 147.585 120.722 150.158C119.913 152.732 118.665 157.287 118.076 160.081C117.487 162.874 117.342 164.894 117.194 166.916C117.046 168.938 117.084 170.371 117.194 172.208C117.304 174.045 117.452 175.919 117.856 177.941C118.259 179.963 118.885 182.388 119.62 184.335C120.354 186.282 121.346 188.121 122.266 189.627C123.185 191.133 123.974 192.145 125.132 193.376C126.29 194.606 127.575 195.856 129.211 197.014C130.847 198.172 132.849 199.402 134.944 200.321C137.039 201.241 139.647 202.013 141.78 202.526C143.912 203.04 145.27 203.261 147.733 203.408C150.196 203.556 154.017 203.556 156.553 203.408C159.089 203.261 160.963 202.895 162.947 202.526C164.932 202.158 166.327 201.865 168.46 201.203C170.592 200.542 173.458 199.512 175.736 198.557C178.014 197.603 179.522 196.976 182.13 195.47C184.739 193.965 189.793 190.492 191.391 189.517C192.99 188.542 192.659 186.227 191.722 189.627C190.785 193.027 187.68 203.812 185.769 209.913C183.857 216.014 182.02 221.672 180.256 226.23C178.492 230.787 176.36 234.867 175.185 237.255C174.01 239.643 174.082 239.277 173.2 240.562C172.318 241.848 170.903 243.777 169.893 244.972C168.883 246.167 168.001 246.974 167.137 247.728C166.272 248.482 165.776 248.941 164.711 249.492C163.646 250.043 161.882 250.778 160.742 251.036C159.602 251.294 158.758 251.219 157.876 251.036C156.994 250.853 156.019 250.319 155.45 249.933C154.881 249.547 154.734 249.179 154.458 248.72C154.182 248.262 153.944 248.39 153.797 247.177C153.649 245.964 153.779 242.639 153.576 241.444C153.373 240.249 153.007 240.397 152.584 240.011C152.161 239.625 151.739 239.349 151.04 239.129C150.341 238.908 149.387 238.65 148.394 238.688C147.402 238.725 145.896 239.091 145.087 239.349C144.278 239.607 144.223 239.625 143.543 240.231C142.864 240.838 141.577 242.161 141.008 242.988C140.439 243.814 140.309 244.383 140.126 245.193C139.943 246.002 139.833 246.957 139.905 247.839C139.978 248.72 140.309 249.785 140.567 250.484C140.825 251.183 140.953 251.422 141.449 252.028C141.945 252.634 142.789 253.554 143.543 254.123C144.298 254.692 145.124 255.077 145.969 255.446C146.813 255.814 147.695 256.107 148.615 256.328C149.534 256.548 150.231 256.696 151.481 256.769C152.732 256.841 154.606 256.879 156.112 256.769C157.618 256.658 159.016 256.438 160.522 256.107C162.028 255.776 163.498 255.408 165.152 254.784C166.806 254.16 168.79 253.241 170.444 252.359C172.098 251.477 173.789 250.374 175.075 249.492C176.36 248.61 176.894 248.187 178.162 247.067C179.429 245.947 181.376 244.145 182.682 242.767C183.987 241.389 184.593 240.745 185.989 238.798C187.385 236.851 189.297 234.24 191.061 231.081C192.825 227.921 195.067 223.291 196.573 219.835C198.079 216.38 198.851 214.03 200.101 210.354C201.351 206.678 202.857 201.902 204.07 197.786C205.283 193.669 206.661 188.066 207.377 185.658C208.094 183.251 205.155 183.692 208.37 183.343C211.584 182.995 223.566 183.581 226.671 183.564C229.775 183.546 226.433 184.17 227.002 183.233C227.57 182.296 229.592 178.878 230.089 177.941C230.585 177.004 233.358 177.648 229.978 177.61C226.598 177.573 212.614 179.723 209.803 177.72C206.991 175.718 211.97 169.414 213.11 165.593C214.25 161.772 215.573 157.618 216.638 154.789C217.703 151.96 218.623 150.269 219.505 148.615C220.387 146.961 221.141 145.914 221.93 144.866C222.72 143.819 223.491 143.01 224.245 142.331C224.999 141.652 225.641 141.191 226.45 140.787C227.26 140.384 228.214 140.016 229.096 139.905C229.978 139.795 231.026 139.888 231.742 140.126C232.459 140.364 233.01 140.915 233.396 141.339C233.782 141.762 233.947 141.963 234.057 142.661C234.168 143.36 234.168 144.719 234.057 145.528C233.947 146.337 233.469 146.851 233.396 147.512C233.323 148.174 233.268 148.928 233.616 149.497C233.965 150.066 234.847 150.655 235.491 150.93C236.135 151.206 236.741 151.188 237.475 151.151C238.209 151.113 239.019 151.078 239.901 150.71C240.783 150.341 242.013 149.625 242.767 148.946C243.521 148.267 244.035 147.42 244.421 146.63C244.807 145.841 244.972 145.014 245.082 144.205C245.193 143.396 245.265 142.699 245.082 141.78C244.899 140.86 244.549 139.592 243.98 138.693C243.411 137.793 242.491 136.984 241.665 136.377C240.838 135.771 239.828 135.348 239.019 135.054C238.209 134.761 238.064 134.686 236.814 134.613C235.563 134.541 233.248 134.43 231.522 134.613C229.795 134.796 227.956 135.275 226.45 135.716C224.944 136.157 223.767 136.671 222.481 137.259C221.196 137.848 220.129 138.362 218.733 139.244C217.337 140.126 215.664 141.211 214.103 142.551C212.541 143.892 210.592 145.914 209.362 147.292C208.131 148.67 207.525 149.645 206.716 150.82C205.907 151.995 205.466 152.546 204.511 154.348C203.556 156.149 201.902 159.567 200.983 161.624C200.063 163.681 199.88 164.087 198.998 166.696C198.116 169.304 196.335 175.423 195.691 177.28C195.047 179.136 197.914 177.776 195.14 177.831C192.366 177.886 181.782 177.593 179.043 177.61C176.305 177.628 179.246 177.004 178.713 177.941C178.179 178.878 176.305 182.296 175.846 183.233C175.388 184.17 173.035 183.546 175.957 183.564C178.878 183.581 190.547 183.27 193.376 183.343C196.205 183.416 193.779 183.381 192.935 184.005C192.09 184.629 190.251 185.916 188.304 187.092C186.357 188.267 183.822 189.848 181.248 191.061C178.675 192.273 175.368 193.559 172.87 194.368C170.371 195.177 167.946 195.581 166.255 195.911C164.563 196.242 164.233 196.28 162.727 196.352C161.221 196.425 158.685 196.425 157.214 196.352C155.744 196.28 155.192 196.205 153.907 195.911C152.621 195.618 150.893 195.177 149.497 194.589C148.101 194 146.558 193.045 145.528 192.384C144.498 191.722 144.15 191.446 143.323 190.62C142.496 189.793 141.356 188.542 140.567 187.422C139.777 186.302 139.134 185.107 138.582 183.894C138.031 182.682 137.663 181.8 137.259 180.146C136.856 178.492 136.305 176.728 136.157 173.972C136.009 171.216 135.974 167.137 136.377 163.609C136.781 160.081 137.59 156.332 138.582 152.804C139.575 149.276 141.301 145.014 142.331 142.441C143.36 139.868 143.801 139.171 144.756 137.37C145.711 135.568 146.483 134.025 148.064 131.637C149.645 129.249 152.125 125.591 154.238 123.037C156.35 120.484 158.665 118.169 160.742 116.312C162.819 114.456 164.601 113.188 166.696 111.902C168.79 110.617 171.584 109.329 173.311 108.595C175.037 107.86 175.957 107.75 177.059 107.492C178.162 107.234 178.565 107.124 179.925 107.051C181.286 106.978 183.601 106.868 185.217 107.051C186.834 107.234 188.452 107.713 189.627 108.154C190.803 108.595 191.446 109.018 192.273 109.697C193.1 110.376 193.982 111.186 194.589 112.233C195.195 113.28 195.691 114.806 195.912 115.981C196.132 117.157 196.132 117.966 195.912 119.289C195.691 120.612 195.25 122.449 194.589 123.919C193.927 125.39 192.256 127.209 191.943 128.109C191.629 129.008 192.401 129.046 192.714 129.321C193.027 129.597 193.045 129.69 193.817 129.762C194.589 129.835 196.315 129.91 197.345 129.762C198.374 129.615 199.256 129.211 199.991 128.88C200.725 128.55 201.038 128.384 201.755 127.778C202.471 127.172 203.611 126.107 204.29 125.242C204.97 124.378 205.393 123.699 205.834 122.596C206.275 121.494 206.789 120.133 206.936 118.627C207.084 117.121 207.009 115.027 206.716 113.556C206.423 112.085 205.852 110.928 205.172 109.807C204.493 108.687 203.757 107.805 202.637 106.831C201.517 105.856 200.028 104.774 198.447 103.964C196.866 103.155 195.177 102.494 193.155 101.98C191.133 101.466 188.415 101.06 186.32 100.877C184.225 100.694 181.579 100.877 180.587 100.877C179.595 100.877 181.762 100.694 180.366 100.877Z" fill="#0A0A0A"/>
<path d="M438.943 161.662H427.963C427.314 158.504 426.178 155.73 424.554 153.339C422.96 150.948 421.012 148.941 418.71 147.318C416.437 145.665 413.914 144.425 411.139 143.599C408.365 142.772 405.472 142.359 402.462 142.359C396.972 142.359 391.998 143.746 387.541 146.521C383.114 149.295 379.587 153.383 376.96 158.785C374.362 164.186 373.064 170.812 373.064 178.664C373.064 186.515 374.362 193.141 376.96 198.543C379.587 203.944 383.114 208.032 387.541 210.806C391.998 213.581 396.972 214.968 402.462 214.968C405.472 214.968 408.365 214.555 411.139 213.728C413.914 212.902 416.437 211.677 418.71 210.054C421.012 208.401 422.96 206.379 424.554 203.988C426.178 201.568 427.314 198.793 427.963 195.665H438.943C438.117 200.299 436.612 204.446 434.427 208.106C432.243 211.766 429.528 214.88 426.281 217.447C423.034 219.986 419.389 221.919 415.345 223.247C411.331 224.576 407.037 225.24 402.462 225.24C394.728 225.24 387.851 223.351 381.83 219.573C375.809 215.795 371.071 210.423 367.618 203.457C364.165 196.491 362.438 188.227 362.438 178.664C362.438 169.1 364.165 160.836 367.618 153.87C371.071 146.904 375.809 141.532 381.83 137.754C387.851 133.976 394.728 132.087 402.462 132.087C407.037 132.087 411.331 132.751 415.345 134.08C419.389 135.408 423.034 137.356 426.281 139.924C429.528 142.462 432.243 145.561 434.427 149.221C436.612 152.852 438.117 156.999 438.943 161.662ZM482.896 225.417C476.757 225.417 471.37 223.956 466.736 221.034C462.132 218.112 458.531 214.024 455.933 208.77C453.366 203.516 452.082 197.377 452.082 190.352C452.082 183.268 453.366 177.084 455.933 171.801C458.531 166.518 462.132 162.415 466.736 159.493C471.37 156.571 476.757 155.11 482.896 155.11C489.036 155.11 494.407 156.571 499.012 159.493C503.646 162.415 507.247 166.518 509.815 171.801C512.412 177.084 513.711 183.268 513.711 190.352C513.711 197.377 512.412 203.516 509.815 208.77C507.247 214.024 503.646 218.112 499.012 221.034C494.407 223.956 489.036 225.417 482.896 225.417ZM482.896 216.031C487.56 216.031 491.397 214.835 494.407 212.445C497.418 210.054 499.647 206.91 501.093 203.014C502.539 199.118 503.262 194.897 503.262 190.352C503.262 185.806 502.539 181.571 501.093 177.645C499.647 173.72 497.418 170.547 494.407 168.126C491.397 165.706 487.56 164.496 482.896 164.496C478.233 164.496 474.396 165.706 471.385 168.126C468.374 170.547 466.146 173.72 464.7 177.645C463.253 181.571 462.53 185.806 462.53 190.352C462.53 194.897 463.253 199.118 464.7 203.014C466.146 206.91 468.374 210.054 471.385 212.445C474.396 214.835 478.233 216.031 482.896 216.031ZM529.661 224V155.995H539.755V166.267H540.463C541.703 162.902 543.946 160.172 547.193 158.076C550.44 155.981 554.1 154.933 558.173 154.933C558.94 154.933 559.9 154.947 561.051 154.977C562.202 155.006 563.073 155.051 563.663 155.11V165.736C563.309 165.647 562.497 165.514 561.228 165.337C559.988 165.13 558.675 165.027 557.287 165.027C553.982 165.027 551.03 165.721 548.433 167.108C545.865 168.466 543.828 170.355 542.323 172.775C540.847 175.166 540.109 177.896 540.109 180.966V224H529.661ZM602.491 225.417C595.939 225.417 590.286 223.97 585.534 221.078C580.812 218.156 577.166 214.083 574.599 208.858C572.06 203.604 570.791 197.495 570.791 190.529C570.791 183.563 572.06 177.424 574.599 172.111C577.166 166.769 580.738 162.607 585.313 159.626C589.917 156.615 595.289 155.11 601.429 155.11C604.97 155.11 608.468 155.7 611.921 156.881C615.375 158.061 618.518 159.98 621.352 162.636C624.185 165.263 626.443 168.746 628.126 173.085C629.808 177.424 630.649 182.766 630.649 189.112V193.54H578.229V184.508H620.024C620.024 180.671 619.256 177.247 617.721 174.236C616.216 171.225 614.061 168.849 611.257 167.108C608.483 165.367 605.207 164.496 601.429 164.496C597.267 164.496 593.666 165.529 590.626 167.595C587.615 169.632 585.298 172.288 583.675 175.564C582.051 178.841 581.24 182.353 581.24 186.102V192.123C581.24 197.259 582.125 201.612 583.896 205.184C585.697 208.726 588.191 211.426 591.378 213.286C594.566 215.116 598.27 216.031 602.491 216.031C605.236 216.031 607.715 215.647 609.929 214.88C612.172 214.083 614.106 212.902 615.729 211.338C617.352 209.744 618.607 207.766 619.492 205.405L629.587 208.238C628.524 211.662 626.738 214.673 624.23 217.27C621.721 219.838 618.622 221.845 614.932 223.292C611.243 224.708 607.096 225.417 602.491 225.417ZM681.077 155.995V170.163H639.106V155.995H681.077ZM648.713 224V151.081C648.713 146.152 649.672 142.064 651.591 138.817C653.539 135.57 656.195 133.135 659.56 131.512C662.925 129.888 666.747 129.077 671.027 129.077C673.92 129.077 676.561 129.298 678.952 129.741C681.373 130.184 683.173 130.582 684.354 130.936L680.989 145.104C680.251 144.868 679.336 144.646 678.244 144.44C677.181 144.233 676.089 144.13 674.968 144.13C672.193 144.13 670.26 144.779 669.168 146.078C668.076 147.347 667.53 149.133 667.53 151.435V224H648.713ZM692.6 224V155.995H711.46V224H692.6ZM702.074 147.229C699.27 147.229 696.865 146.299 694.858 144.44C692.88 142.551 691.891 140.293 691.891 137.666C691.891 135.068 692.88 132.84 694.858 130.981C696.865 129.091 699.27 128.147 702.074 128.147C704.878 128.147 707.269 129.091 709.247 130.981C711.254 132.84 712.257 135.068 712.257 137.666C712.257 140.293 711.254 142.551 709.247 144.44C707.269 146.299 704.878 147.229 702.074 147.229ZM742.33 155.995L754.816 179.77L767.611 155.995H786.958L767.257 189.998L787.49 224H768.231L754.816 200.491L741.622 224H722.141L742.33 189.998L722.85 155.995H742.33Z" fill="white"/>
<path d="M438.943 161.662H427.963C427.314 158.504 426.178 155.73 424.554 153.339C422.96 150.948 421.012 148.941 418.71 147.318C416.437 145.665 413.914 144.425 411.139 143.599C408.365 142.772 405.472 142.359 402.462 142.359C396.972 142.359 391.998 143.746 387.541 146.521C383.114 149.295 379.587 153.383 376.96 158.785C374.362 164.186 373.064 170.812 373.064 178.664C373.064 186.515 374.362 193.141 376.96 198.543C379.587 203.944 383.114 208.032 387.541 210.806C391.998 213.581 396.972 214.968 402.462 214.968C405.472 214.968 408.365 214.555 411.139 213.728C413.914 212.902 416.437 211.677 418.71 210.054C421.012 208.401 422.96 206.379 424.554 203.988C426.178 201.568 427.314 198.793 427.963 195.665H438.943C438.117 200.299 436.612 204.446 434.427 208.106C432.243 211.766 429.528 214.88 426.281 217.447C423.034 219.986 419.389 221.919 415.345 223.247C411.331 224.576 407.037 225.24 402.462 225.24C394.728 225.24 387.851 223.351 381.83 219.573C375.809 215.795 371.071 210.423 367.618 203.457C364.165 196.491 362.438 188.227 362.438 178.664C362.438 169.1 364.165 160.836 367.618 153.87C371.071 146.904 375.809 141.532 381.83 137.754C387.851 133.976 394.728 132.087 402.462 132.087C407.037 132.087 411.331 132.751 415.345 134.08C419.389 135.408 423.034 137.356 426.281 139.924C429.528 142.462 432.243 145.561 434.427 149.221C436.612 152.852 438.117 156.999 438.943 161.662ZM482.896 225.417C476.757 225.417 471.37 223.956 466.736 221.034C462.132 218.112 458.531 214.024 455.933 208.77C453.366 203.516 452.082 197.377 452.082 190.352C452.082 183.268 453.366 177.084 455.933 171.801C458.531 166.518 462.132 162.415 466.736 159.493C471.37 156.571 476.757 155.11 482.896 155.11C489.036 155.11 494.407 156.571 499.012 159.493C503.646 162.415 507.247 166.518 509.815 171.801C512.412 177.084 513.711 183.268 513.711 190.352C513.711 197.377 512.412 203.516 509.815 208.77C507.247 214.024 503.646 218.112 499.012 221.034C494.407 223.956 489.036 225.417 482.896 225.417ZM482.896 216.031C487.56 216.031 491.397 214.835 494.407 212.445C497.418 210.054 499.647 206.91 501.093 203.014C502.539 199.118 503.262 194.897 503.262 190.352C503.262 185.806 502.539 181.571 501.093 177.645C499.647 173.72 497.418 170.547 494.407 168.126C491.397 165.706 487.56 164.496 482.896 164.496C478.233 164.496 474.396 165.706 471.385 168.126C468.374 170.547 466.146 173.72 464.7 177.645C463.253 181.571 462.53 185.806 462.53 190.352C462.53 194.897 463.253 199.118 464.7 203.014C466.146 206.91 468.374 210.054 471.385 212.445C474.396 214.835 478.233 216.031 482.896 216.031ZM529.661 224V155.995H539.755V166.267H540.463C541.703 162.902 543.946 160.172 547.193 158.076C550.44 155.981 554.1 154.933 558.173 154.933C558.94 154.933 559.9 154.947 561.051 154.977C562.202 155.006 563.073 155.051 563.663 155.11V165.736C563.309 165.647 562.497 165.514 561.228 165.337C559.988 165.13 558.675 165.027 557.287 165.027C553.982 165.027 551.03 165.721 548.433 167.108C545.865 168.466 543.828 170.355 542.323 172.775C540.847 175.166 540.109 177.896 540.109 180.966V224H529.661ZM602.491 225.417C595.939 225.417 590.286 223.97 585.534 221.078C580.812 218.156 577.166 214.083 574.599 208.858C572.06 203.604 570.791 197.495 570.791 190.529C570.791 183.563 572.06 177.424 574.599 172.111C577.166 166.769 580.738 162.607 585.313 159.626C589.917 156.615 595.289 155.11 601.429 155.11C604.97 155.11 608.468 155.7 611.921 156.881C615.375 158.061 618.518 159.98 621.352 162.636C624.185 165.263 626.443 168.746 628.126 173.085C629.808 177.424 630.649 182.766 630.649 189.112V193.54H578.229V184.508H620.024C620.024 180.671 619.256 177.247 617.721 174.236C616.216 171.225 614.061 168.849 611.257 167.108C608.483 165.367 605.207 164.496 601.429 164.496C597.267 164.496 593.666 165.529 590.626 167.595C587.615 169.632 585.298 172.288 583.675 175.564C582.051 178.841 581.24 182.353 581.24 186.102V192.123C581.24 197.259 582.125 201.612 583.896 205.184C585.697 208.726 588.191 211.426 591.378 213.286C594.566 215.116 598.27 216.031 602.491 216.031C605.236 216.031 607.715 215.647 609.929 214.88C612.172 214.083 614.106 212.902 615.729 211.338C617.352 209.744 618.607 207.766 619.492 205.405L629.587 208.238C628.524 211.662 626.738 214.673 624.23 217.27C621.721 219.838 618.622 221.845 614.932 223.292C611.243 224.708 607.096 225.417 602.491 225.417ZM681.077 155.995V170.163H639.106V155.995H681.077ZM648.713 224V151.081C648.713 146.152 649.672 142.064 651.591 138.817C653.539 135.57 656.195 133.135 659.56 131.512C662.925 129.888 666.747 129.077 671.027 129.077C673.92 129.077 676.561 129.298 678.952 129.741C681.373 130.184 683.173 130.582 684.354 130.936L680.989 145.104C680.251 144.868 679.336 144.646 678.244 144.44C677.181 144.233 676.089 144.13 674.968 144.13C672.193 144.13 670.26 144.779 669.168 146.078C668.076 147.347 667.53 149.133 667.53 151.435V224H648.713ZM692.6 224V155.995H711.46V224H692.6ZM702.074 147.229C699.27 147.229 696.865 146.299 694.858 144.44C692.88 142.551 691.891 140.293 691.891 137.666C691.891 135.068 692.88 132.84 694.858 130.981C696.865 129.091 699.27 128.147 702.074 128.147C704.878 128.147 707.269 129.091 709.247 130.981C711.254 132.84 712.257 135.068 712.257 137.666C712.257 140.293 711.254 142.551 709.247 144.44C707.269 146.299 704.878 147.229 702.074 147.229ZM742.33 155.995L754.816 179.77L767.611 155.995H786.958L767.257 189.998L787.49 224H768.231L754.816 200.491L741.622 224H722.141L742.33 189.998L722.85 155.995H742.33Z" fill="black" fill-opacity="0.2"/>
</svg>
